<svg version="1.1" xmlns="http://www.w3.org/2000/svg" width="378" height="378">
<path d="M0 0 C0.83832367 0.00248749 1.67664734 0.00497498 2.54037476 0.00753784 C15.01626618 0.06475375 27.12707557 0.39816896 39.3125 3.3125 C40.72982422 3.64314453 40.72982422 3.64314453 42.17578125 3.98046875 C75.48308245 11.97929966 105.57384067 27.49830477 130.3125 51.3125 C131.14515381 52.09850586 131.14515381 52.09850586 131.99462891 52.90039062 C157.90634154 77.44180541 175.83604967 108.93121578 184.625 143.5 C184.86750488 144.44875 185.11000977 145.3975 185.35986328 146.375 C188.7951084 160.57239467 189.69405407 174.46889715 189.625 189 C189.62251251 189.83832367 189.62002502 190.67664734 189.61746216 191.54037476 C189.56024625 204.01626618 189.22683104 216.12707557 186.3125 228.3125 C186.09207031 229.25738281 185.87164062 230.20226562 185.64453125 231.17578125 C177.64570034 264.48308245 162.12669523 294.57384067 138.3125 319.3125 C137.78849609 319.86760254 137.26449219 320.42270508 136.72460938 320.99462891 C112.18319459 346.90634154 80.69378422 364.83604967 46.125 373.625 C45.17625 373.86750488 44.2275 374.11000977 43.25 374.35986328 C29.05260533 377.7951084 15.15610285 378.69405407 0.625 378.625 C-0.21332367 378.62251251 -1.05164734 378.62002502 -1.91537476 378.61746216 C-14.39126618 378.56024625 -26.50207557 378.22683104 -38.6875 375.3125 C-39.63238281 375.09207031 -40.57726562 374.87164062 -41.55078125 374.64453125 C-74.85808245 366.64570034 -104.94884067 351.12669523 -129.6875 327.3125 C-130.24260254 326.78849609 -130.79770508 326.26449219 -131.36962891 325.72460938 C-157.28134154 301.18319459 -175.21104967 269.69378422 -184 235.125 C-184.24250488 234.17625 -184.48500977 233.2275 -184.73486328 232.25 C-188.1701084 218.05260533 -189.06905407 204.15610285 -189 189.625 C-188.99751251 188.78667633 -188.99502502 187.94835266 -188.99246216 187.08462524 C-188.93524625 174.60873382 -188.60183104 162.49792443 -185.6875 150.3125 C-185.46707031 149.36761719 -185.24664062 148.42273438 -185.01953125 147.44921875 C-177.02070034 114.14191755 -161.50169523 84.05115933 -137.6875 59.3125 C-137.16349609 58.75739746 -136.63949219 58.20229492 -136.09960938 57.63037109 C-111.55819459 31.71865846 -80.06878422 13.78895033 -45.5 5 C-44.55125 4.75749512 -43.6025 4.51499023 -42.625 4.26513672 C-28.42760533 0.8298916 -14.53110285 -0.06905407 0 0 Z " fill="#27A9DF" transform="translate(188.6875,-0.3125)"/>
<path d="M0 0 C2.51416016 1.14501953 2.51416016 1.14501953 5.1015625 2.6328125 C6.06247803 3.17760254 7.02339355 3.72239258 8.01342773 4.28369141 C8.99899658 4.85007324 9.98456543 5.41645508 11 6 C12.89844395 7.05441946 14.79818973 8.10649836 16.69921875 9.15625 C29.18320857 16.11625863 41.57912736 23.21035053 53.91015625 30.4375 C60.21570566 34.13213396 66.54304427 37.78835133 72.875 41.4375 C73.94572754 42.05496094 75.01645508 42.67242187 76.11962891 43.30859375 C81.14997206 46.20848296 86.18208301 49.10525067 91.21737671 51.99653625 C98.15500523 55.98039319 105.08344413 59.97966688 112 64 C112.76844238 64.44520996 113.53688477 64.89041992 114.32861328 65.34912109 C116.18446062 66.42974666 118.03169335 67.52316256 119.875 68.625 C121.26332031 69.44871094 121.26332031 69.44871094 122.6796875 70.2890625 C125.89975832 72.66345816 128.21039762 75.42079524 130 79 C130.59057744 84.67862925 130.29370905 89.16922672 127 94 C121.9693198 98.79354376 116.10693483 101.9762111 110.06872559 105.35675049 C108.20840886 106.39828563 106.35226417 107.44692836 104.49707031 108.49755859 C102.56956684 109.5890109 100.64182565 110.68001676 98.71282959 111.76882935 C92.36974382 115.34922932 86.05676378 118.98102816 79.75 122.625 C78.68168945 123.24165527 77.61337891 123.85831055 76.51269531 124.49365234 C68.34627452 129.2117257 60.19932136 133.96275133 52.05566406 138.7199707 C42.37914746 144.36939101 32.68625914 149.98966693 22.9609375 155.5546875 C19.34450154 157.62856784 15.76586525 159.74257225 12.2265625 161.9453125 C5.54018114 166.05443421 -0.28693624 169.38251354 -8.43359375 168.6953125 C-12.61934869 167.56127235 -15.46289954 165.50180632 -18 162 C-19.83468247 158.15998744 -20.25416725 155.09745249 -20.26742554 150.8584137 C-20.27595551 149.62333069 -20.28448547 148.38824768 -20.29327393 147.11573792 C-20.29257497 145.75497424 -20.29165195 144.39421066 -20.29052734 143.03344727 C-20.29651451 141.59418388 -20.3033205 140.1549237 -20.31088257 138.71566772 C-20.32852858 134.81277563 -20.33323729 130.90997126 -20.33451414 127.00704312 C-20.33593685 124.56751613 -20.34020868 122.12801138 -20.34550858 119.68848991 C-20.36400274 111.17471782 -20.37217977 102.66100831 -20.37060547 94.1472168 C-20.36940355 86.21561442 -20.39051717 78.28428393 -20.4220928 70.35275036 C-20.44825354 63.53816181 -20.45897288 56.72366208 -20.45769465 49.9090237 C-20.45718504 45.84103673 -20.46286751 41.77329157 -20.48405075 37.70535469 C-20.50343045 33.87948165 -20.50355983 30.0540812 -20.48901749 26.22819138 C-20.48692807 24.82616294 -20.49163833 23.42410493 -20.5037384 22.02212715 C-20.6096467 8.89858611 -20.6096467 8.89858611 -16 4 C-10.99869569 -0.52498962 -6.44362498 -1.11418111 0 0 Z " fill="#E4E5E6" transform="translate(153,106)"/>
</svg>
